<svg width="50" height="80" viewBox="0 0 50 80" fill="none" xmlns="http://www.w3.org/2000/svg">
<path d="M44.8718 0H5.12821C3.76859 0.00158807 2.4651 0.564001 1.5037 1.56385C0.542309 2.5637 0.00152699 3.91933 0 5.33333V74.6667C0.00152699 76.0807 0.542309 77.4363 1.5037 78.4361C2.4651 79.436 3.76859 79.9984 5.12821 80H44.8718C46.2314 79.9984 47.5349 79.436 48.4963 78.4361C49.4577 77.4363 49.9985 76.0807 50 74.6667V5.33333C49.9985 3.91933 49.4577 2.5637 48.4963 1.56385C47.5349 0.564001 46.2314 0.00158807 44.8718 0ZM44.8718 5.33333V10.6667H5.12821V5.33333H44.8718ZM44.8718 16L44.8736 53.3333H5.12821V16H44.8718ZM44.8718 74.6667H5.12821V58.6667H44.8744V74.6667H44.8718Z" fill="black"/>
<rect x="20" y="63" width="10" height="7" fill="black"/>
</svg>
